# xmcd
#
# Track frame offsets: 
#        150
#        21533
#        41157
#        59420
#        75696
#        91216
#        105974
#        123209
#        142128
#        158831
#        177396
#
# Disc length: 2663 seconds
#
# Revision: 4
# Processed by: cddbd v1.5.2PL0 Copyright (c) Steve Scherf et al.
# Submitted via: ExactAudioCopy v0.95b4
#
DISCID=910a650b
DTITLE=Rita Guerra - Rita
DYEAR=2005
DGENRE=Rock
TTITLE0=À Espera Do Sol
TTITLE1=Chegar A Ti
TTITLE2=Diz-me Que O Tempo Não Passa
TTITLE3=Deixa-me Sonhar (Só Mais Uma Vez)
TTITLE4=O Que Tu És Para Mim
TTITLE5=Se Eu Pudesse
TTITLE6=Para Além Da Noite
TTITLE7=Será
TTITLE8=Onde Tu Estiveres
TTITLE9=Só Tu (Dueto com Paulo Martins)
TTITLE10=Secretamente
EXTD=
EXTT0=
EXTT1=
EXTT2=
EXTT3=
EXTT4=
EXTT5=
EXTT6=
EXTT7=
EXTT8=
EXTT9=
EXTT10=
PLAYORDER=
